<svg xmlns="http://www.w3.org/2000/svg" viewBox="0 0 461.74 70.98"><title>Risorsa 1</title><g id="Livello_2" data-name="Livello 2"><g id="Livello_1-2" data-name="Livello 1"><path d="M8.65.28H35.47q8.69,8.29,8.69,8.65V26.54H26.54V17.89h-9V53.4h9V44.75H44.16V62.33Q35.85,71,35.47,71H8.65Q0,62.72,0,62.33V8.93Q8.27.28,8.65.28Z"/><path d="M64.13,0H91q8.68,8.27,8.68,8.65v53.4Q91.34,70.7,91,70.7H64.13q-8.65-8.3-8.65-8.65V8.65Q63.73,0,64.13,0Zm8.92,53.09h9V17.58h-9Z"/><path d="M128.85,0q14.52,26.45,17.58,31V0H164V70.7h-17.9Q130.33,42.05,128.53,40V70.7H111V0Z"/><path d="M225.21.28V17.89H210V71H190.3V17.89H175.08V.28Z"/><path d="M275.91.28Q284.27,36.35,292.6,71H272.92l-2.08-10.12H258.33q-.6,0-2.71,10.12H236.25L252.63.28ZM261.28,45.53h6.47l-3.27-12.31Z"/><path d="M353.78.28V17.89H338.55V71H318.87V17.89H303.64V.28Z"/><path d="M414.63.28V17.89H399.41V71H379.72V17.89H364.5V.28Z"/><path d="M461.74,0V17.58h-8.93q-.53,0-.6.6V52.49a.53.53,0,0,0,.6.6h8.93V70.7H425.67V53.09h8.93V17.58h-8.93V0Z"/></g></g></svg>