<svg xmlns="http://www.w3.org/2000/svg" viewBox="0 0 357.82 181.16"><defs><style>.cls-1,.cls-8{fill:#fec700;}.cls-1{stroke:#580096;stroke-width:2px;}.cls-1,.cls-5,.cls-6{stroke-miterlimit:10;}.cls-2{fill:#580096;}.cls-3{fill:#a033ff;}.cls-4{fill:#3d0072;}.cls-5,.cls-6{fill:#fff;stroke:#000;}.cls-5{stroke-width:1.08px;}.cls-7{fill:#841c3a;}</style></defs><title>logo_1</title><g id="Livello_2" data-name="Livello 2"><g id="Livello_1-2" data-name="Livello 1"><path class="cls-1" d="M148.84,23.48,151,43.26l8.87-.94-2.11-19.79L171.92,21l5.6,52.62-14.21,1.52-2.1-19.76-8.87.94,2.1,19.76-14.21,1.51L134.63,25Z"/><path class="cls-1" d="M186.78,19.23l20-2.13q7.11,5.46,7.15,5.75l4.23,39.74q-5.49,7.09-5.78,7.13l-20,2.13q-7.09-5.49-7.12-5.76L181,26.35Q186.49,19.26,186.78,19.23ZM197.64,58l6.67-.71-2.82-26.43-6.67.71Z"/><path class="cls-1" d="M235,14.09q12.9,18.53,15.54,21.69L248,12.7l13.11-1.4,5.6,52.62-13.32,1.42q-14-20.07-15.54-21.47l2.44,22.87-13.09,1.39-5.6-52.62Z"/><path class="cls-1" d="M283.81,8.89l2.08,19.55.21,0,7.47-20.56,15.1-1.61q-1,3-11,27.66,1.65,2.76,16.56,24.75l0,.21-15.1,1.61Q287.8,42.16,287.36,42.2l2.05,19.31L275.21,63,269.6,10.4Z"/><path class="cls-1" d="M331.59,3.8l6.49,12.54.45-.05q3.5-13.6,3.92-13.65l14-1.49q-9.06,31-8.94,32.15l2.32,21.77-14.65,1.57-2.34-22q-.06-.51-15.46-29.35Z"/><path class="cls-2" d="M198.33,74.38l5.06-.54a2.69,2.69,0,0,1,3,2,39.36,39.36,0,0,0,2.45,3.59c1.33-4.09,2.3-6.16,2.89-6.23a4.33,4.33,0,0,1,1.14-.32l4.89-.52a2.34,2.34,0,0,1,2.91,2.35L223,96.81a6.79,6.79,0,0,1-.76,3.43q-3.19,7.11-3.41,7.37a2.79,2.79,0,0,1-1.8.79l-5,.53a2.24,2.24,0,0,1-2.64-1.6.09.09,0,0,0-.11-.09c-.32,1.29-1,2-2,2.09a2.22,2.22,0,0,1-2.22-1.43H205a7.59,7.59,0,0,1-.73,1.35,3.14,3.14,0,0,1-1.71.69l-5,.53a2.17,2.17,0,0,1-2.69-2.19l-2.4-22.53c-.09-.84.48-2.52,1.73-5,1.38-3.5,2.24-5.4,2.55-5.69A2.53,2.53,0,0,1,198.33,74.38Zm-.17,2.19,2.47,23.12,5.75-.62-.91-8.58q1.09,1.38,5.29,8h.1q3.3-8.79,3.29-8.94h.1l.91,8.59,5.75-.62-2.46-23.11-5.65.6q-.2.12-3.49,8.95v.11Q209.11,84,204,76Z"/><path class="cls-2" d="M231.93,70.8l8-.85a5,5,0,0,1,3.56,1.46c1.47,1.16,2.26,2.17,2.35,3l1.8,16.87a10.5,10.5,0,0,1-.82,3.94,68.76,68.76,0,0,1-3.71,7.29c-1.72,2.23-2.85,3.37-3.37,3.43l-8.59.92a4.43,4.43,0,0,1-3.41-1.42c-1.57-1.14-2.41-2.26-2.53-3.38l-1.81-17,0-.49h-.09q4-9.48,4.27-9.93,2.88-3.64,3.45-3.71A4.75,4.75,0,0,1,231.93,70.8Zm-2.69,5.32,1.86,17.46a38.55,38.55,0,0,0,3.13,2.52l8.77-.93A33.74,33.74,0,0,0,245.54,92l-1.86-17.46a37.87,37.87,0,0,0-3.14-2.52l-8.77.93A35,35,0,0,0,229.24,76.12Zm6.06,2.31,2.93-.31,1.24,11.6-2.93.32Z"/><path class="cls-2" d="M254,68.45l5-.53a2.71,2.71,0,0,1,2.94,1.66,3.82,3.82,0,0,1,.7,1h.09c.54-2.1,1.44-3.21,2.7-3.35l5.18-.55A2.26,2.26,0,0,1,273.41,69l2.38,22.33a5.94,5.94,0,0,1-.86,3.06l-3.25,7.54a2.76,2.76,0,0,1-1.88.9l-5,.53a3.16,3.16,0,0,1-3.26-1.88c-.25-.54-.41-.8-.48-.79-.57,2.1-1.41,3.21-2.5,3.33l-5.36.57c-1.69.18-2.64-.67-2.84-2.57l-2.32-21.74a6.24,6.24,0,0,1,.91-3.46c2-4.74,3.1-7.28,3.34-7.64A3.28,3.28,0,0,1,254,68.45Zm-.15,2.19,2.46,23.11,5.75-.61-1.07-10q.66.61,6.83,9.44l5.85-.63-2.46-23.11-5.76.61,1.08,10.14q-1.16-1.4-6.83-9.52Z"/><path class="cls-2" d="M281.86,65.48l5.47-.58A2.29,2.29,0,0,1,289.81,66a4.44,4.44,0,0,0,.17.57h.09c.26-1.27.8-2,1.59-2.14l.83-.09,5.86-.63a2.47,2.47,0,0,1,2.72,1.48.84.84,0,0,1,0,.3q.07.73-2.21,6.06-2,5.09-2.5,6.18,5.85,8.55,7.06,10.7l0,.38a9.52,9.52,0,0,1-1.3,3.5q-2.6,6.3-2.92,6.82a3.69,3.69,0,0,1-1.71.68l-5.85.62a2.49,2.49,0,0,1-2.84-1.67h-.1c.09.92-.45,1.64-1.65,2.15l-6,.65c-1.69.18-2.63-.61-2.82-2.38L275.9,77.07a5.1,5.1,0,0,1,.77-2.94c2-4.9,3.18-7.52,3.4-7.87A2.88,2.88,0,0,1,281.86,65.48Zm-.15,2.19,2.46,23.12,6.24-.67-.9-8.48q.19,0,5.19,8l6.63-.7v-.09q-6.54-9.66-7.27-10.88,4.4-10.84,4.82-12.15l-6.63.71-3.28,9h-.09L288,67Z"/><path class="cls-2" d="M309.62,62.63l13.75-1.47a2.35,2.35,0,0,1,2.92,2.36l.52,4.87a7.19,7.19,0,0,1-1.17,3.87,5.16,5.16,0,0,0-.44,1.43l.39,3.71a4.17,4.17,0,0,1-.06,1.19c1.56-.16,2.42.56,2.6,2.19l.48,4.58a6.16,6.16,0,0,1-.35,3.15,83.51,83.51,0,0,1-3.79,7.94,2.74,2.74,0,0,1-1.79.79l-13.85,1.47c-1.69.18-2.64-.67-2.84-2.55l-2.31-21.75a6.87,6.87,0,0,1,1.06-3.87q2.89-7.14,3.27-7.25A2.58,2.58,0,0,1,309.62,62.63Zm-.15,2.18,2.46,23.11,14.62-1.56-.62-5.74-8.87.94-.31-2.93,6.83-.73L323,72.16l-6.82.73L315.82,70,324.7,69l-.62-5.76Z"/><path class="cls-2" d="M334.72,59.85l5.47-.58A2.42,2.42,0,0,1,342.93,61a.73.73,0,0,1,.14.38,8.6,8.6,0,0,0,.7-1.76,2.9,2.9,0,0,1,1.88-.88l5.46-.59a2.29,2.29,0,0,1,2.61,1.4,1.12,1.12,0,0,1,.15.38q0,.38-3.91,14.33l1,9a6.4,6.4,0,0,1-.93,3.25L346.75,94a3.19,3.19,0,0,1-1.79.78l-5.67.6c-1.68.18-2.62-.61-2.81-2.37l-.93-8.77q0-.41-6.45-12.34c-.2-.63-.33-.94-.39-.94a11.21,11.21,0,0,1,1.12-3.28c1.9-4.47,2.94-6.82,3.1-7A2.88,2.88,0,0,1,334.72,59.85ZM334.57,62q6.76,12.67,6.79,12.89l1,9.65,6.43-.68-1-9.56q0-.5,3.93-14.13l-6.15.66a42.77,42.77,0,0,0-1.72,6l-.2,0-2.85-5.5Z"/><path d="M195.69,120.13l2.21-.12.47,8.79-2.39.14-1.48-2.36-1.23,2.51-2.39.13-.47-8.8,2.21-.12.25,4.56,1.38-2.85,1.68,2.68Z"/><path d="M201.39,126.37l4-.23.13,2.26-6.26.35-.47-8.79,2.2-.13,3.8-.21.12,2.25-3.79.21.05,1,2.21-.12.12,2.26-2.21.12Z"/><path d="M215.91,125.43l1,2a7.21,7.21,0,0,1-1.61.58,5.43,5.43,0,0,1-1.08.16,3.87,3.87,0,0,1-2.24-.48,4.35,4.35,0,0,1-1.89-3.81q-.17-3,1.49-4.36a3.24,3.24,0,0,1,1-.55,4.26,4.26,0,0,1,1-.22,4.53,4.53,0,0,1,.9,0,4.23,4.23,0,0,1,.67.1l.35.09-.66,2.16a2.81,2.81,0,0,0-.51-.11,2.59,2.59,0,0,0-.72,0,1.35,1.35,0,0,0-.68.28,2.9,2.9,0,0,0-.62,2.45c.05,1,.31,1.68.78,2a1.52,1.52,0,0,0,.71.19,3.45,3.45,0,0,0,.85-.08l.74-.21Z"/><path d="M218.2,118.82a4.15,4.15,0,0,1,4.5-.25,4.71,4.71,0,0,1,1.73,1.73,5.52,5.52,0,0,1,.27,5,4.81,4.81,0,0,1-1.53,1.91A4.07,4.07,0,0,1,221,128a4,4,0,0,1-2.28-.54,4.78,4.78,0,0,1-1.73-1.73,5.28,5.28,0,0,1-.74-2.47,5.4,5.4,0,0,1,.47-2.55A4.74,4.74,0,0,1,218.2,118.82ZM223,122.9a3.14,3.14,0,0,0-.38-1.36,2.6,2.6,0,0,0-.88-1,1.94,1.94,0,0,0-2.29.13,2.56,2.56,0,0,0-.77,1,3.09,3.09,0,0,0-.23,1.39,3,3,0,0,0,.77,1.9,2,2,0,0,0,3.22-.18A3,3,0,0,0,223,122.9Z"/><path d="M230.66,118.18l2.39-.13.47,8.8-2.21.12-.24-4.56-1.39,2.85L228,122.58l.24,4.56-2.2.12-.48-8.81,2.38-.13,1.5,2.37Z"/><path d="M239.07,117.72l2.39-.14.48,8.8-2.21.12-.25-4.56-1.38,2.85-1.69-2.68.25,4.56-2.21.13L234,118l2.38-.14,1.49,2.38Z"/><path d="M247.1,117.27l2.21-.12.29,5.46a4.16,4.16,0,0,1-.78,2.93,3.3,3.3,0,0,1-2.51,1.19,3.17,3.17,0,0,1-2.88-1.23,4.34,4.34,0,0,1-.82-2.5l-.3-5.47,2.21-.12.29,5.47a2.24,2.24,0,0,0,.36,1.23,1.1,1.1,0,0,0,1,.36,1.13,1.13,0,0,0,1-.47,2.22,2.22,0,0,0,.22-1.26Z"/><path d="M254.85,116.82l2.2-.11.47,8.8-2.35.13-2.57-4.24.24,4.37-2.21.13-.47-8.81,2.35-.12,2.56,4.24Z"/><path d="M260.67,125.32l-2.21.13-.47-8.8,2.21-.12Z"/><path d="M266.93,122.59l1,2a7.21,7.21,0,0,1-1.61.58,5.43,5.43,0,0,1-1.08.16,3.92,3.92,0,0,1-2.25-.48,4.33,4.33,0,0,1-1.88-3.81c-.11-2,.38-3.48,1.49-4.36a3.19,3.19,0,0,1,1-.55,4.26,4.26,0,0,1,1-.22,4.63,4.63,0,0,1,.91,0,4.23,4.23,0,0,1,.67.1l.35.09-.66,2.16a2.81,2.81,0,0,0-.51-.11,2.59,2.59,0,0,0-.72,0,1.31,1.31,0,0,0-.68.28,2.93,2.93,0,0,0-.63,2.45c.06,1,.32,1.68.79,2a1.52,1.52,0,0,0,.71.19,3.5,3.5,0,0,0,.85-.08l.73-.21A5.37,5.37,0,0,0,266.93,122.59Z"/><path d="M271.65,115l4.92,9.43-2.47.14-.34-.7-3.3.18-.26.74-2.48.13Zm-.34,6.74,1.36-.08-.76-1.54Z"/><path d="M274.94,115.72l7.55-.42.12,2.26-2.67.15.35,6.54-2.21.12-.35-6.54-2.67.15Z"/><path d="M285.5,121.69l4.05-.23.12,2.26-6.26.35-.47-8.8,2.21-.12,3.8-.21.12,2.25-3.8.21.06,1,2.2-.12.13,2.26-2.21.12Z"/><path d="M171.79,156.79l10.07-.34.26,7.69-15.92.54-1-29.92,5.86-.2Z"/><path d="M187.41,133.86a9,9,0,0,1,11.92-.41,15.21,15.21,0,0,1,4.54,6,23.63,23.63,0,0,1,.59,17.06,15.5,15.5,0,0,1-4.12,6.34,8.95,8.95,0,0,1-11.92.41,15.44,15.44,0,0,1-4.55-6,23.54,23.54,0,0,1-.58-17.06A15.18,15.18,0,0,1,187.41,133.86Zm12.5,14.32a13.05,13.05,0,0,0-1-4.64,8.8,8.8,0,0,0-2.31-3.34,4.28,4.28,0,0,0-6.07.21,8.77,8.77,0,0,0-2.07,3.48,13.12,13.12,0,0,0-.65,4.7,11.78,11.78,0,0,0,2,6.5c1.24,1.79,2.69,2.65,4.35,2.6s3.05-1,4.17-2.89A11.85,11.85,0,0,0,199.91,148.18Z"/><path d="M219.4,133l5.86-.2.63,18.59q.23,6.18-2.15,9.85a7.87,7.87,0,0,1-6.68,3.82q-5,.18-7.6-4.48a18.2,18.2,0,0,1-2.12-8.55l-.64-18.6,5.86-.2.64,18.6a9.44,9.44,0,0,0,.91,4.21,2.72,2.72,0,0,0,2.68,1.34,2.78,2.78,0,0,0,2.62-1.52,9.37,9.37,0,0,0,.63-4.26Z"/><path d="M243,133.2q4.5,3.9,4.79,12.6c0,.89.05,1.67.05,2.33s0,1.41-.07,2.26a15.6,15.6,0,0,1-.27,2.31c-.14.7-.31,1.41-.52,2.14a10.35,10.35,0,0,1-.84,2.06,10.58,10.58,0,0,1-1.24,1.77,9.87,9.87,0,0,1-4.7,2.81,31.3,31.3,0,0,1-7.29,1v0l-4.38.15-1-29.88,0,0a8.55,8.55,0,0,1,1.11-.5q.66-.25,2-.72a14,14,0,0,1,2.83-.63,26.11,26.11,0,0,1,3.13-.13,10.3,10.3,0,0,1,3.36.67A10,10,0,0,1,243,133.2Zm-2,19.56a4.18,4.18,0,0,0,.76-2,26.41,26.41,0,0,0,.13-4.75c-.1-3.16-.81-5.3-2.11-6.42s-3.44-1.56-6.18-1h-.11l.56,16.15C237.78,154.46,240.09,153.81,241,152.76Z"/><path d="M255.69,153.92l10.07-.35.26,7.69-15.92.55-1-29.93,5.86-.2Z"/><path d="M275.62,131l6.84-.23-7,16.23L276,161l-5.86.2-.47-13.94-8.09-15.72,6.87-.23,3.84,7.51Z"/><path d="M287.11,151.78a2.76,2.76,0,0,1,1.71.52,3.8,3.8,0,0,1,1.26,1.54,5.51,5.51,0,0,1,.52,2.2,5,5,0,0,1-.88,3.16,2.88,2.88,0,0,1-2.3,1.37,2.72,2.72,0,0,1-1.71-.54,4.1,4.1,0,0,1-1.28-1.57,5.12,5.12,0,0,1-.53-2.19,5,5,0,0,1,.87-3.12A2.93,2.93,0,0,1,287.11,151.78Zm2.84-2.17-5.85.2-.84-24.49,5.85-.2Z"/><circle class="cls-3" cx="22.68" cy="132.13" r="21.71"/><path class="cls-4" d="M43.4,125.66a22.22,22.22,0,0,1-14.09,27.67,22.4,22.4,0,0,1-17.1-1.2,22.22,22.22,0,0,1,3.84-41.2A22.22,22.22,0,0,1,43.4,125.66Zm0,0a21.74,21.74,0,0,0-4.08-7.42,21.17,21.17,0,0,0-23-6.35,21.22,21.22,0,1,0,27.92,22.18A21.57,21.57,0,0,0,43.4,125.66Z"/><path class="cls-2" d="M8.38,130.71a17.51,17.51,0,0,1,1.85-7,11.29,11.29,0,0,1,5.21-5.12,12.8,12.8,0,0,1,3.58-1,14.47,14.47,0,0,1,3.72,0,21.7,21.7,0,0,1,6.93,2.26l0,.1a40.26,40.26,0,0,0-7-1.37,14.78,14.78,0,0,0-6.87.75A10.63,10.63,0,0,0,10.67,124a17.19,17.19,0,0,0-2.19,6.76Z"/><path class="cls-3" d="M157.34,86.33s4.32-7.55,10.46-8.9a15.53,15.53,0,0,1,15.57,5.65c3.26,4.38,8.57,13.08,7.61,18.29s-8.65,25.28-31.94,28.91C159,130.28,150.9,93.42,157.34,86.33Z"/><path class="cls-4" d="M157.26,86.28A25.92,25.92,0,0,1,161,81.44a17,17,0,0,1,4.94-3.61A13.44,13.44,0,0,1,172,76.76a16.43,16.43,0,0,1,6.08,1.35,15.72,15.72,0,0,1,5.19,3.61,29.23,29.23,0,0,1,2,2.44c.62.83,1.21,1.67,1.78,2.53a48.68,48.68,0,0,1,3.15,5.37,24.34,24.34,0,0,1,2.2,6,11.44,11.44,0,0,1,.14,3.53,24.1,24.1,0,0,1-.81,3.17,40.74,40.74,0,0,1-2.43,5.87,41.85,41.85,0,0,1-7.51,10.18,38.19,38.19,0,0,1-10.39,7.28,43.05,43.05,0,0,1-12.11,3.39l-1.23.18-.21-1.16c-.66-3.71-1.21-7.4-1.69-11.12s-.87-7.44-1.12-11.17A110.63,110.63,0,0,1,154.68,97a41.91,41.91,0,0,1,.5-5.59A11,11,0,0,1,157.26,86.28Zm.16.11a10.74,10.74,0,0,0-2,5.11,36.76,36.76,0,0,0-.44,5.55,94.29,94.29,0,0,0,.61,11.14c.39,3.71.91,7.4,1.52,11.07s1.3,7.34,2.08,11l-.18-.12a44.68,44.68,0,0,0,11.53-3.61,38.38,38.38,0,0,0,9.79-7.05,42,42,0,0,0,7.22-9.68,40.69,40.69,0,0,0,2.44-5.54,23.31,23.31,0,0,0,.81-2.91,9.25,9.25,0,0,0,0-3,22.87,22.87,0,0,0-1.86-5.73A49,49,0,0,0,186,87.29a46.48,46.48,0,0,0-3.47-5,15.82,15.82,0,0,0-2.21-2,16.9,16.9,0,0,0-2.59-1.55,15.56,15.56,0,0,0-5.81-1.5,13.1,13.1,0,0,0-5.91.91,15.56,15.56,0,0,0-4.89,3.48A26.18,26.18,0,0,0,157.42,86.39Z"/><path class="cls-4" d="M156.06,96.07a38.14,38.14,0,0,1,4.47-5.9,23.78,23.78,0,0,1,5.83-4.66,10.24,10.24,0,0,1,7.43-1.25,11,11,0,0,1,6,4.41l-.07.06a13.61,13.61,0,0,0-6.17-3.5,10.79,10.79,0,0,0-6.85,1,23.21,23.21,0,0,0-5.83,4.3,36.94,36.94,0,0,0-4.74,5.61Z"/><path class="cls-3" d="M28.36,78.11s-2.29,27.36-.31,36.66-3.06,15-3.06,15l7.81-6.22s-3.75,18.21-3.42,25.22c0,0,2.13-9,4.24-12.19,0,0,1.09,12.2,2.71,16l1.22-3.2s4.77,22.85,7.07,27.85c0,0,.63-10.31,3.53-12.84,0,0,7.8,12.16,12.51,14,0,0-7.27-7.62-8.33-12.91,0,0,35.7,14.72,55.07,11.92s48.67-26.08,48.67-26.08,4.94-13.86,2.62-34.19-5.05-26.81,1.39-34.95c1.93-2.45-2.29-13.68-6.5-12.37S149,71.54,149,71.54s-10.27-18.3-31.25-23.38a43.47,43.47,0,0,1,12.47-17S110,30.47,96.18,45.86c0,0-3.46-11.08,18.67-30.91,0,0-30.73,7.07-44.76,28.93,0,0-1.57-15.47,1.18-29.68C71.27,14.2,43.34,31.5,28.36,78.11Z"/><path d="M28.41,78.12c-.34,4.35-.61,8.73-.81,13.1s-.32,8.75-.28,13.12c0,2.19.09,4.38.28,6.56.08,1.09.22,2.17.4,3.25a27.11,27.11,0,0,1,.5,3.25,17.82,17.82,0,0,1-3.45,12.42l-.11-.12,7.81-6.23.19-.15,0,.24c-.84,4.16-1.59,8.35-2.23,12.54q-.5,3.15-.84,6.31a44.91,44.91,0,0,0-.34,6.34h-.2c.5-2.11,1.07-4.19,1.73-6.25q.48-1.55,1.08-3.06a16.2,16.2,0,0,1,1.43-2.93l.19-.3,0,.36q.38,4,1,8.05c.19,1.33.42,2.66.68,4a22.16,22.16,0,0,0,1.07,3.87h-.28l1.21-3.21.19-.5.11.53q1.5,7,3.17,14c.56,2.33,1.14,4.65,1.76,7a58.08,58.08,0,0,0,2.18,6.81l-.39.07a51.08,51.08,0,0,1,.91-6.73,25.49,25.49,0,0,1,.91-3.29,7.41,7.41,0,0,1,1.76-3l.2-.18.15.22a92.21,92.21,0,0,0,5.55,7.63,45.43,45.43,0,0,0,3.15,3.5,12.5,12.5,0,0,0,3.7,2.73l-.28.41a57.12,57.12,0,0,1-4.92-6,33.93,33.93,0,0,1-2.06-3.31,14.78,14.78,0,0,1-1.42-3.68L52,165l.46.18a225.42,225.42,0,0,0,26.68,8.75,129.21,129.21,0,0,0,13.75,2.77,54.66,54.66,0,0,0,13.93.4,50.72,50.72,0,0,0,13.35-4,118.13,118.13,0,0,0,12.48-6.37A213.82,213.82,0,0,0,155.85,151l-.12.16a64.55,64.55,0,0,0,2.39-11.07,87.56,87.56,0,0,0,.79-11.33,100.1,100.1,0,0,0-.58-11.35c-.42-3.77-.94-7.54-1.45-11.31a113.26,113.26,0,0,1-1.2-11.39,23.4,23.4,0,0,1,.51-5.77,16.76,16.76,0,0,1,2.33-5.34c.26-.41.54-.81.83-1.19l.43-.57a1.41,1.41,0,0,0,.23-.51,6.35,6.35,0,0,0,0-2.64,16.69,16.69,0,0,0-1.88-5.21,10.44,10.44,0,0,0-1.61-2.21,3.48,3.48,0,0,0-2.17-1.18,1.89,1.89,0,0,0-.58.08l-.66.21-1.35.45-1.31.49c-.21.09-.43.18-.63.28l-.29.15-.13.08s-.11.1,0,0l-.72,0a50.41,50.41,0,0,0-6-7.88,56.48,56.48,0,0,0-7.3-6.7A49.92,49.92,0,0,0,127,52a46.54,46.54,0,0,0-9.3-3.36l-.49-.13.17-.46a34.58,34.58,0,0,1,2.35-4.86,44.33,44.33,0,0,1,2.93-4.49,45,45,0,0,1,3.44-4.12,50.06,50.06,0,0,1,3.88-3.69l.29.82a45.6,45.6,0,0,0-9.36,1,50.72,50.72,0,0,0-9,2.77A44.1,44.1,0,0,0,103.6,40a41.85,41.85,0,0,0-7.06,6.23l-.63.69L95.72,46a11.94,11.94,0,0,1,.07-4.88,23.93,23.93,0,0,1,1.39-4.55,41.63,41.63,0,0,1,4.64-8.2A85.26,85.26,0,0,1,114.54,14.6l.41.8A94.75,94.75,0,0,0,90,25.81a70.08,70.08,0,0,0-10.89,8,52.37,52.37,0,0,0-8.79,10.23l-.51.77-.08-.92A125.92,125.92,0,0,1,69.44,29c.08-2.48.26-5,.51-7.44s.63-4.94,1.08-7.39l.37.25a63,63,0,0,0-7.63,6c-2.42,2.18-4.71,4.49-6.9,6.9A123,123,0,0,0,45,42.84a138.73,138.73,0,0,0-9.44,17.1A158.35,158.35,0,0,0,28.41,78.12Zm-.1,0a161.53,161.53,0,0,1,7.07-18.25,140.59,140.59,0,0,1,9.37-17.17A121.86,121.86,0,0,1,56.59,27.09q3.27-3.64,6.88-7A64.72,64.72,0,0,1,71.14,14l.47-.31-.1.56c-.43,2.44-.81,4.88-1,7.35S70.07,26.54,70,29a124.5,124.5,0,0,0,.41,14.84l-.59-.14A53.1,53.1,0,0,1,78.68,33.3a71,71,0,0,1,10.95-8.16,95.93,95.93,0,0,1,25.11-10.65l1.8-.45-1.39,1.25c-2.29,2.08-4.52,4.24-6.63,6.51A71.91,71.91,0,0,0,102.63,29a40.59,40.59,0,0,0-4.54,8,23.44,23.44,0,0,0-1.34,4.37,11.49,11.49,0,0,0-.11,4.4l-.82-.19a43,43,0,0,1,7.23-6.36,45.1,45.1,0,0,1,8.44-4.6,50.29,50.29,0,0,1,9.19-2.82,45.83,45.83,0,0,1,9.58-1h1.22l-.94.81a48.23,48.23,0,0,0-3.81,3.62,43.32,43.32,0,0,0-3.37,4,42,42,0,0,0-2.88,4.39,34,34,0,0,0-2.28,4.71l-.32-.59a47.65,47.65,0,0,1,9.47,3.43,51,51,0,0,1,8.56,5.32,57.6,57.6,0,0,1,7.41,6.81,51.45,51.45,0,0,1,6.07,8l-.72,0a1.14,1.14,0,0,1,.25-.22l.18-.1a2.21,2.21,0,0,1,.34-.18c.22-.11.45-.21.67-.3.45-.18.91-.35,1.36-.51l1.36-.46.7-.22a2.9,2.9,0,0,1,.83-.1,4.25,4.25,0,0,1,2.75,1.43A11.2,11.2,0,0,1,158.86,73a17.77,17.77,0,0,1,2,5.49,7.11,7.11,0,0,1,0,3,2.38,2.38,0,0,1-.36.78l-.43.57c-.29.37-.55.75-.81,1.14A16.34,16.34,0,0,0,157,89.09a22.41,22.41,0,0,0-.49,5.56,113.58,113.58,0,0,0,1.17,11.3c.52,3.77,1,7.55,1.44,11.34a99.37,99.37,0,0,1,.57,11.44,89,89,0,0,1-.82,11.42,65.88,65.88,0,0,1-2.44,11.22l0,.09-.09.07A214.92,214.92,0,0,1,133,167.29a120.36,120.36,0,0,1-12.56,6.38,51.36,51.36,0,0,1-13.53,4,55.46,55.46,0,0,1-14.1-.43A129.93,129.93,0,0,1,79,174.46a224.07,224.07,0,0,1-26.73-8.81l.36-.3A14.11,14.11,0,0,0,54,168.88a33.44,33.44,0,0,0,2,3.27,58.19,58.19,0,0,0,4.86,6l.81.87-1.08-.45a12.69,12.69,0,0,1-3.87-2.86,46.19,46.19,0,0,1-3.18-3.54c-2-2.47-3.83-5-5.56-7.69l.34,0a7,7,0,0,0-1.64,2.79,23.66,23.66,0,0,0-.91,3.22,51.68,51.68,0,0,0-.92,6.67l-.06.86-.33-.79a56,56,0,0,1-2.18-6.88c-.62-2.32-1.19-4.65-1.75-7-1.1-4.66-2.13-9.34-3.12-14l.31,0-1.23,3.19-.14.37-.14-.36a22.75,22.75,0,0,1-1.07-3.94c-.26-1.33-.48-2.66-.68-4q-.57-4-.94-8.07l.23.06a15.73,15.73,0,0,0-1.42,2.88c-.4,1-.76,2-1.08,3-.66,2.05-1.24,4.13-1.75,6.22l-.18.75,0-.77a45.18,45.18,0,0,1,.35-6.37q.35-3.16.84-6.32,1-6.3,2.26-12.54l.14.08L25,129.83l-.54.43.43-.55a17.71,17.71,0,0,0,3.42-12.3,29.81,29.81,0,0,0-.49-3.24,32.59,32.59,0,0,1-.4-3.26c-.19-2.19-.25-4.38-.27-6.57,0-4.37.09-8.75.29-13.13S28,82.48,28.31,78.1Z"/><circle class="cls-5" cx="67.63" cy="110.85" r="19.65"/><path class="cls-6" d="M147.33,90.75a13.64,13.64,0,0,1-26.74,5.36Z"/><path d="M36.32,109.23s31-28.52,55.69-4.64c0,0,9.34-9.94,7.76-18.07a8.79,8.79,0,0,1-11.72,3.35C80.21,86.25,50.82,76,36.32,109.23Z"/><path d="M71.18,165l1.85.65a3,3,0,0,0,3.5-1.21l.4-.64a5.05,5.05,0,0,1,3.12-2.22c10.29-2.41,56.83-13.07,66.68-10.79a.19.19,0,0,0,.16-.34c-1.34-1-3.95-2.83-5.42-2.47-2,.5-2.95.41-55.33,10.89l-.34.06c-1.41.19-12.22,1.77-14.72,5.77A.21.21,0,0,0,71.18,165Z"/><path class="cls-7" d="M90.3,107.29s-3,23.12-21.36,25.61-23.55-11.57-23.55-11.57,5.51,17,20.19,16.8C73.78,138,88.73,133.33,90.3,107.29Z"/><path class="cls-7" d="M127.64,109.35s13.82,5.66,24-4.82C151.63,104.53,146.36,126,127.64,109.35Z"/><circle cx="101.34" cy="118.9" r="4.93"/><circle cx="118.74" cy="118.04" r="5.64"/><path d="M99.25,124.77a15.58,15.58,0,0,1-5.1,1.61,6.4,6.4,0,0,1-2.74-.24,3.79,3.79,0,0,1-2.15-1.81,7.22,7.22,0,0,1-.71-2.68,13.21,13.21,0,0,1,0-2.74,12.29,12.29,0,0,1,.63-2.68,9.48,9.48,0,0,1,1.26-2.45,8.49,8.49,0,0,1,4.32-3.37,12.15,12.15,0,0,1,2.69-.43c.89-.08,1.78-.12,2.67-.16,3.55-.19,7.1-.27,10.65-.35a74.8,74.8,0,0,1,10.68.39,20.81,20.81,0,0,1,2.68.53,5.45,5.45,0,0,1,1.36.58,4.43,4.43,0,0,1,1,1.09,15.58,15.58,0,0,1,2.17,5,9.2,9.2,0,0,1,.32,2.79,3.88,3.88,0,0,1-.11.75,3.27,3.27,0,0,1-.31.73,12.07,12.07,0,0,1-.74,1.17,7.78,7.78,0,0,1-4.49,3.19,9.48,9.48,0,0,1-5.41-.56,21,21,0,0,1-4.68-2.61l.06-.08a22.43,22.43,0,0,0,4.78,2.2,9.09,9.09,0,0,0,5,.28,6.89,6.89,0,0,0,3.89-3c.23-.35.45-.72.66-1.1a2.2,2.2,0,0,0,.29-1.05,8.92,8.92,0,0,0-.31-2.48,16.46,16.46,0,0,0-2-4.69,3.58,3.58,0,0,0-.77-.85,4.38,4.38,0,0,0-1.07-.47,18.94,18.94,0,0,0-2.53-.55,94.75,94.75,0,0,0-10.55-.83,91.8,91.8,0,0,0-10.62.26c-.88.09-1.76.19-2.63.31a12.22,12.22,0,0,0-2.52.55,7.39,7.39,0,0,0-2.15,1.31,8.17,8.17,0,0,0-1.68,1.89A11.68,11.68,0,0,0,89.39,119a12.26,12.26,0,0,0-.09,2.57,6.59,6.59,0,0,0,.54,2.45,3.16,3.16,0,0,0,1.76,1.59,6.23,6.23,0,0,0,2.52.32,16.6,16.6,0,0,0,5.09-1.26Z"/><path d="M92.56,107.42a58.77,58.77,0,0,1,6-5.54,18.51,18.51,0,0,1,1.71-1.18,5.09,5.09,0,0,1,2-.8l.58,0,.52.08a7.07,7.07,0,0,1,1,.19c.68.15,1.33.36,2,.55a64.47,64.47,0,0,1,7.67,2.93,73.73,73.73,0,0,1,7.26,3.81l0,.09c-2.58-.92-5.08-2-7.61-3s-5-2.16-7.53-3.08c-.64-.21-1.28-.44-1.93-.6a6.69,6.69,0,0,0-1-.23l-.48-.08h-.44a4.77,4.77,0,0,0-1.79.66,19.38,19.38,0,0,0-1.7,1.08,59.61,59.61,0,0,0-6.26,5.21Z"/><path d="M41.56,82.08a56.06,56.06,0,0,1,5.93-4.19,22.3,22.3,0,0,1,3.27-1.66,20.24,20.24,0,0,1,3.58-.86q7.17-1.23,14.4-1.82c2.42-.18,4.83-.31,7.26-.35,1.21,0,2.42,0,3.64.07a12.74,12.74,0,0,1,1.83.24,4.11,4.11,0,0,1,.46.15,1.48,1.48,0,0,1,.42.31,6.53,6.53,0,0,1,.59.71,35.75,35.75,0,0,1,1.74,3.2,6.19,6.19,0,0,0,1,1.42,2.77,2.77,0,0,0,1.53.72,27.62,27.62,0,0,0,7.15.29,17.92,17.92,0,0,0,3.51-.62c1.16-.34,2.33-.64,3.51-.92s2.36-.57,3.55-.8c.6-.13,1.2-.23,1.82-.31a5,5,0,0,1,2,0,16.42,16.42,0,0,0,7,.17,36.69,36.69,0,0,0,6.69-2.42,14.43,14.43,0,0,1,1.79-.59,4.55,4.55,0,0,1,1-.14,2.71,2.71,0,0,1,1.07.18,22.42,22.42,0,0,1,3.25,1.81,14.5,14.5,0,0,0,3.09,1.61,1.35,1.35,0,0,0,.66.08c.25-.09.52-.19.8-.31l1.65-.71L149,71.5l0,.09c-4.29,2.22-8.6,4.4-13,6.48l-1.66.75a9,9,0,0,1-.88.36,2.23,2.23,0,0,1-1.13,0A15.89,15.89,0,0,1,129,77.5a27.88,27.88,0,0,0-3.1-1.68c-.86-.33-2,.15-3.13.56-2.2.87-4.38,2.07-6.9,2.49a17.61,17.61,0,0,1-7.4-.29,4.33,4.33,0,0,0-1.61,0c-.59.07-1.18.16-1.77.26-1.18.21-2.35.45-3.53.71s-2.35.52-3.52.81a18,18,0,0,1-3.64.5,30.54,30.54,0,0,1-7.27-.48,3.15,3.15,0,0,1-1.68-.83A6.85,6.85,0,0,1,84.41,78a27.23,27.23,0,0,0-1.75-3.14,5.3,5.3,0,0,0-.57-.67.89.89,0,0,0-.31-.22,3,3,0,0,0-.4-.12,10.2,10.2,0,0,0-1.76-.2c-1.2,0-2.4,0-3.6.07-2.41.14-4.81.37-7.2.62-4.8.51-9.6,1-14.35,1.75a23.82,23.82,0,0,0-3.48.73,20.6,20.6,0,0,0-3.24,1.5c-2.1,1.16-4.14,2.46-6.13,3.81Z"/><path d="M42,75.25a13.36,13.36,0,0,1,7.33-5.88,40.4,40.4,0,0,1,4.67-1c1.55-.26,3.12-.45,4.69-.6,3.13-.33,6.28-.47,9.42-.63l4.71-.26,4.71-.31c1.57-.11,3.14-.22,4.72-.3a10.43,10.43,0,0,1,4.76.8A11.73,11.73,0,0,1,90.89,70c.55.59,1,1.23,1.52,1.85.24.31.48.63.72.9a1.93,1.93,0,0,0,.33.32l.05,0c-.1,0,0,0,.13,0,3-.68,6.1-1.41,9.15-2.16L112,68.72l.35-.08.09.35a1.58,1.58,0,0,0,.54.67,3.9,3.9,0,0,0,.9.49,8.26,8.26,0,0,0,2.12.46,22.83,22.83,0,0,0,4.45,0l0,.1a22.56,22.56,0,0,1-4.5.41,9.1,9.1,0,0,1-2.29-.36,4.93,4.93,0,0,1-1.09-.52,2.1,2.1,0,0,1-.85-1l.43.27C106.07,71.08,100,72.73,93.82,74a1.41,1.41,0,0,1-.45,0,1.06,1.06,0,0,1-.49-.21,2.92,2.92,0,0,1-.5-.49c-.28-.33-.51-.65-.74-1-.47-.63-.93-1.25-1.44-1.82a11.24,11.24,0,0,0-3.56-2.76c-2.74-1.38-6-.84-9.13-.85l-4.71.23-4.7.38c-3.12.31-6.24.71-9.36,1.06A80.45,80.45,0,0,0,49.5,70.1,14.1,14.1,0,0,0,42,75.3Z"/><polygon points="148.24 71.31 137.56 76.5 133.57 79.23 149.63 71.78 148.24 71.31"/><path d="M128.34,120.47a19.16,19.16,0,0,1,7.22,3.13,24,24,0,0,1,5.58,5.44,27.43,27.43,0,0,1,2,3.31,28.18,28.18,0,0,1,1.6,3.54c.47,1.2.77,2.46,1.16,3.68l.79,3.79-.91-3.75c-.43-1.21-.76-2.46-1.28-3.63a27.54,27.54,0,0,0-1.69-3.45,26.21,26.21,0,0,0-2.1-3.19,23.46,23.46,0,0,0-5.59-5.12,18.33,18.33,0,0,0-6.93-2.75Z"/><line class="cls-3" x1="133.6" y1="149.47" x2="132.7" y2="145.34"/><polygon points="133.11 149.57 132.7 145.34 134.09 149.36 133.11 149.57"/><line class="cls-3" x1="135.11" y1="149.43" x2="134.67" y2="146.68"/><polygon points="134.62 149.51 134.67 146.68 135.61 149.35 134.62 149.51"/><path class="cls-2" d="M156.17,87.57A24.13,24.13,0,0,0,153.86,97a20.44,20.44,0,0,0,.73,6.91C157.81,116,151.4,126,151.4,126a7.52,7.52,0,0,0,4.37-3.89c.29,11.65-1.88,27.34-7.12,31.91-5.59,4.87-18.71,7.44-18.71,7.44l3.77.07s-19,11.83-26.07,12.42-25.78-4.83-25.78-4.83l1.42,2.11c-11.19-1.74-15.46-8.57-15.46-8.57l-2,3.16c-2.52-3.59,1.26-13.31,1.26-13.31l-4.41,3.24,5.39-8.8-7.14,3.22,14.82-10C51.05,154.29,39,117.7,39,117.7c-2-10.31-2.57-18.85-2-25.92l1.6,2.62c-.91-2.33-1-7.1-1-7.63C40.69,68.84,52.43,62.06,67.39,60.1c22-2.9,25.66,10,25.66,10a16.82,16.82,0,0,1,1-4A8.4,8.4,0,0,0,94.3,69a6.73,6.73,0,0,1,4.76-3.27c3.08-.59,26.32,0,32.46,0a7,7,0,0,1,2.84.61A20.09,20.09,0,0,1,138.85,69l-.61-1.93,5.3,6.51,5.34-2.48s-7.55-10.76-10.23-12.4l3.27.15s-6-2.84-8-4-8.11-6.07-15.36-6.74c0,0,2.62-11,11.72-16.92,1.79-1.16.29-.44-.52,0A46.16,46.16,0,0,0,96.18,45.86C94.09,32,114.85,14.94,114.85,14.94,80.18,23.85,70.09,43.88,70.09,43.88c-2-8.63,1.18-29.68,1.18-29.68C41.36,35.39,28.36,78.11,28.36,78.11s-3.66,23.55-.76,33.66a23.17,23.17,0,0,1-2.14,17.88l7.78-6.9c-5,9.62-3.93,27.78-3.93,27.78,1-6.26,4.44-14.42,4.44-14.42-.72,3.55,2.6,17.07,2.6,17.07l1.2-3.85C37.42,155.81,45,178,45,178c-1-6.84,3.19-13.63,3.19-13.63C56.37,176.66,61,178.67,61,178.67a35.94,35.94,0,0,1-8.68-13.27s21.72,7.73,35.73,10.79c27.92,6.09,49.82-12.52,49.82-12.52s14.2-8.41,17.76-12.62,3.79-22.68,3.11-30.38c-1-10.82-2.79-19.49-2.64-25.42.2-8,2.13-11.21,2.13-11.21S156.8,86.37,156.17,87.57Z"/><path class="cls-8" d="M146.56,74.66a32.77,32.77,0,0,1,3.22-1.81,15.52,15.52,0,0,1,3.5-1.33,2.29,2.29,0,0,1,1,0,3.34,3.34,0,0,1,.87.48,7.69,7.69,0,0,1,1.3,1.38,9.6,9.6,0,0,1,1.62,3.34,12.48,12.48,0,0,0-1.92-3.1,8.39,8.39,0,0,0-1.29-1.24,3,3,0,0,0-.74-.4,1.94,1.94,0,0,0-.79,0,21.76,21.76,0,0,0-3.43,1.18C148.81,73.67,147.69,74.17,146.56,74.66Z"/><path class="cls-8" d="M60.1,76.16q3.69-.57,7.4-.94c2.48-.26,5-.5,7.44-.62,1.24,0,2.49-.08,3.74,0a14.87,14.87,0,0,1,1.87.15,2.21,2.21,0,0,1,1.51,1.11,17.74,17.74,0,0,0,1.73,3.29,4.1,4.1,0,0,0,3.09,1.81,4.14,4.14,0,0,1-3.2-1.73,18.53,18.53,0,0,1-1.76-3.28,2.07,2.07,0,0,0-1.41-1,13.86,13.86,0,0,0-1.84-.13c-1.24,0-2.48,0-3.72.1-2.48.11-5,.3-7.43.53Z"/><path class="cls-8" d="M47.83,135.67a48.92,48.92,0,0,0,4.59,4.52,15.75,15.75,0,0,0,5.49,3.22,9.05,9.05,0,0,1-3.11-1,15.18,15.18,0,0,1-2.7-1.85,19.38,19.38,0,0,1-2.32-2.3A18.18,18.18,0,0,1,47.83,135.67Z"/><path class="cls-8" d="M55.56,144.15a19.74,19.74,0,0,0,3.23.44c1.07,0,2.15,0,3.23,0s2.16-.17,3.23-.32,2.14-.35,3.22-.53c-.51.19-1,.35-1.55.52s-1.06.29-1.6.39a21.23,21.23,0,0,1-3.27.44,19.14,19.14,0,0,1-3.3-.12A11.71,11.71,0,0,1,55.56,144.15Z"/><path class="cls-8" d="M53.35,145.29a13.82,13.82,0,0,0,3,.75,20,20,0,0,0,3.09.18,26.79,26.79,0,0,0,3.09-.24c1-.14,2.05-.35,3.08-.55-.49.19-1,.36-1.48.54s-1,.28-1.53.39a17.47,17.47,0,0,1-3.15.36,14.53,14.53,0,0,1-3.16-.3A9.12,9.12,0,0,1,53.35,145.29Z"/><path class="cls-8" d="M81.48,34.16a44.77,44.77,0,0,1,6-5.21A76,76,0,0,1,94,24.59c2.31-1.28,4.63-2.55,7-3.59,1.2-.56,2.44-1,3.66-1.52s2.48-.88,3.73-1.29c-2.4,1.09-4.8,2.14-7.14,3.33s-4.66,2.4-6.92,3.71S89.93,28,87.76,29.42A73.76,73.76,0,0,0,81.48,34.16Z"/><path d="M33.64,136.47a1.83,1.83,0,0,1,.08.57v.46l0,.93c0,.62.1,1.24.17,1.86.14,1.23.32,2.46.53,3.69l.68,3.67a33.92,33.92,0,0,0,.88,3.61h0l.42,1.71-.52,0,1.16-3.86.56-1.87,0,2a37.38,37.38,0,0,0,1.23,7.35c.6,2.43,1.28,4.85,2,7.26s1.5,4.82,2.15,7.24a68.13,68.13,0,0,0,2.36,7.07l-1.07.24V174.7a29.3,29.3,0,0,1,.59-3.67A24.57,24.57,0,0,1,46,167.46a25.31,25.31,0,0,1,1.54-3.41l.51-.92.6.9c1.59,2.4,3.31,4.77,5.13,7,.91,1.12,1.86,2.21,2.86,3.23A18.48,18.48,0,0,0,59.84,177l0,0,0,0c.21.16.43.31.65.45l.33.21a2,2,0,0,0,.29.15l-.82,1.25-.41-.39-3.13-3,3.93,1.76h0l-.82,1.23c-.9-1-1.75-1.94-2.58-3s-1.61-2-2.39-3.13a39.38,39.38,0,0,1-2-3.44,36.1,36.1,0,0,1-1.6-3.64l-.6-1.65,1.66.65c6.8,2.7,13.78,5.07,20.81,7.1,3.53,1,7.07,1.95,10.65,2.72,1.78.39,3.61.72,5.39,1.09s3.55.56,5.4.76a53.21,53.21,0,0,0,10.84.31A41.49,41.49,0,0,0,116,173.94c1.7-.67,3.48-1.23,5.15-1.91s3.35-1.41,5-2.22a67.51,67.51,0,0,0,9.37-5.58l0,0h0q5.17-3.1,10.16-6.52c3.31-2.27,6.6-4.61,9.77-7.06l-.19.28c.23-.66.44-1.38.63-2.08v0l0,0a33,33,0,0,0,1.67-7.41c.28-2.55.62-5.14.79-7.69a94.66,94.66,0,0,0-.19-15.43c-.52-5.14-1.25-10.26-1.92-15.4-.32-2.57-.64-5.13-.73-7.76a37,37,0,0,1,.94-7.78h0v0a16.83,16.83,0,0,1,1.45-3.1c.3-.49.61-1,1-1.43l.51-.69a2.18,2.18,0,0,0,.41-.63,6.25,6.25,0,0,0,0-3.16,16.82,16.82,0,0,0-1-3.17,15,15,0,0,0-1.56-2.9A6.26,6.26,0,0,0,155.06,70a2.1,2.1,0,0,0-1.43-.15c-.51.15-1.06.33-1.58.51s-1.06.37-1.57.57c-.26.1-.51.21-.76.33l-.36.18-.16.09s-.13.1-.08,0l-.56,0-.23-.38-.19-.32.34-.16.09,0-.13.5c-1.57-2.18-3.15-4.34-4.8-6.45-.83-1-1.68-2.09-2.55-3.1a16.67,16.67,0,0,0-2.8-2.72l-1.09-.75,1.3.06,3.27.15-.18.72q-2.94-1.38-5.85-2.82a32.6,32.6,0,0,1-2.89-1.56c-.92-.59-1.81-1.18-2.72-1.75a27.65,27.65,0,0,0-11.82-4.45l-.6-.05.15-.58a28.55,28.55,0,0,1,1.06-3.24c.42-1.06.88-2.09,1.39-3.1v0a46.16,46.16,0,0,1,9.35-10.89l.21-.12h0l.19,1.21a47.14,47.14,0,0,0-18.29,3.85,44,44,0,0,0-8.2,4.53A39.48,39.48,0,0,0,99.93,43a34,34,0,0,0-3.29,3.28l-1.15,1.35-.27-1.75a15.55,15.55,0,0,1,.07-4.91,24.78,24.78,0,0,1,1.39-4.63,42.2,42.2,0,0,1,4.66-8.3,87.4,87.4,0,0,1,12.71-13.9l.84,1.63A102.54,102.54,0,0,0,102.09,20,84.25,84.25,0,0,0,90,26,68.71,68.71,0,0,0,79.29,34a55.53,55.53,0,0,0-4.63,4.83,35.83,35.83,0,0,0-3.79,5.36l-1.69,3.06-.31-3.43c-.23-2.53-.34-5-.4-7.51s0-5,0-7.51.38-5,.63-7.49.58-4.95,1-7.43l1.34,1.14.23-.11a64.78,64.78,0,0,0-7.5,6c-2.39,2.17-4.65,4.47-6.82,6.86a119.61,119.61,0,0,0-11.76,15.4,140.59,140.59,0,0,0-9.43,17A170.82,170.82,0,0,0,29,78.22l0-.12c-.84,5.54-1.45,11.15-1.78,16.74-.15,2.8-.23,5.6-.16,8.39a36.6,36.6,0,0,0,1,8.21v.06h0v.06c.07.76.16,1.51.29,2.25s.3,1.51.39,2.3a21,21,0,0,1,.16,2.37,20.68,20.68,0,0,1-.17,2.39,25,25,0,0,1-1.05,4.61,34.05,34.05,0,0,1-1.95,4.3l-.85-.68,1.81-1.58c.6-.52,1.19-1.06,1.83-1.54l3.77-3,1-.82-.27,1.3-.2.93v0h0c-.49,1.59-1.12,3.07-1.62,4.59a25.69,25.69,0,0,0-1.11,4.64v0h0a51,51,0,0,0-.85,8.29,75.41,75.41,0,0,0,.24,8.37l-.48,0a48.29,48.29,0,0,1,1.86-7q.59-1.72,1.23-3.42l.66-1.69.34-.85.18-.42A3,3,0,0,1,33.64,136.47Zm0,.2a2.56,2.56,0,0,1-.05.37l-.16.41-.33.85-.63,1.7c-.4,1.14-.79,2.28-1.16,3.43a47.54,47.54,0,0,0-1.7,7l-.28,1.87-.2-1.89a73.93,73.93,0,0,1-.38-8.42,50.84,50.84,0,0,1,.71-8.43v0a26.37,26.37,0,0,1,1-4.82c.48-1.57,1.1-3.07,1.54-4.59v0l.18-.93.78.48-3.71,3c-.63.48-1.2,1-1.79,1.56l-1.77,1.59-2.17,1.95,1.32-2.63a33.31,33.31,0,0,0,1.8-4.13,23.62,23.62,0,0,0,.94-4.4,21,21,0,0,0,.14-2.21,18.29,18.29,0,0,0-.19-2.23c-.09-.75-.26-1.45-.41-2.25s-.25-1.55-.33-2.33v.06h0v.06a37.82,37.82,0,0,1-1.16-8.54c-.11-2.85-.05-5.69.08-8.52.29-5.67.86-11.29,1.66-16.92v-.11a173.5,173.5,0,0,1,7.08-18.36,141,141,0,0,1,9.42-17.28A121.6,121.6,0,0,1,55.82,26.41c2.2-2.44,4.51-4.8,7-7a65.82,65.82,0,0,1,7.79-6.2l1.91-1.26-.34,2.29c-.36,2.43-.66,4.89-.93,7.34s-.54,4.92-.6,7.34-.08,4.93,0,7.39.19,4.93.41,7.35l-2-.37a35.14,35.14,0,0,1,4.08-5.77,56.9,56.9,0,0,1,4.83-5A70.85,70.85,0,0,1,89,24.26a86.64,86.64,0,0,1,12.37-6.11,103.94,103.94,0,0,1,13.11-4.26l3.7-1-2.86,2.57A86.08,86.08,0,0,0,102.8,29a40.92,40.92,0,0,0-4.54,7.9,23.24,23.24,0,0,0-1.33,4.28,14,14,0,0,0-.11,4.38l-1.43-.39a35.19,35.19,0,0,1,3.5-3.42,40.53,40.53,0,0,1,3.83-3,45.81,45.81,0,0,1,8.52-4.6,48.56,48.56,0,0,1,18.84-3.77h2.2l-2,1.22h0l.22-.12a45,45,0,0,0-9.22,10.52l0,0c-.51,1-1,2-1.38,3a27.43,27.43,0,0,0-1,3.09l-.45-.63a28.45,28.45,0,0,1,12.19,4.72c.92.58,1.82,1.2,2.71,1.78a31.35,31.35,0,0,0,2.8,1.54Q139,57,141.92,58.39l1.68.81-1.86-.1-3.28-.16.21-.68a16.59,16.59,0,0,1,3,2.88c.88,1,1.72,2.07,2.55,3.14,1.66,2.12,3.24,4.3,4.8,6.5l.24.33-.37.17-.1,0,.15-.48.23.4-.56,0a.93.93,0,0,1,.26-.22l.2-.11.4-.2.79-.34c.53-.21,1.07-.4,1.6-.58s1.06-.35,1.64-.52a2.79,2.79,0,0,1,1.85.2,6.73,6.73,0,0,1,2.58,2.38,15.75,15.75,0,0,1,1.62,3,17,17,0,0,1,1,3.28,6.86,6.86,0,0,1-.06,3.51,3.18,3.18,0,0,1-.49.77l-.49.67c-.33.46-.63.92-.91,1.39a17,17,0,0,0-1.39,3v0a37,37,0,0,0-.88,7.62c.1,2.54.43,5.12.77,7.68.69,5.12,1.44,10.25,2,15.41a94.23,94.23,0,0,1,.4,15.58c-.14,2.61-.45,5.16-.7,7.76a33.38,33.38,0,0,1-1.65,7.72l0-.07c-.19.73-.39,1.44-.63,2.17l-.06.17-.14.11c-3.18,2.52-6.45,4.91-9.76,7.24s-6.7,4.56-10.14,6.69l0,0a65,65,0,0,1-9.54,5.81q-2.49,1.26-5.09,2.3c-1.74.71-3.47,1.27-5.19,1.95a43.06,43.06,0,0,1-10.91,2.7,55.09,55.09,0,0,1-11.2-.27c-1.82-.19-3.71-.42-5.54-.78s-3.62-.73-5.43-1.14c-3.62-.8-7.19-1.76-10.74-2.79q-10.65-3.13-21-7.26l1.06-1a31.58,31.58,0,0,0,1.5,3.45c.56,1.12,1.19,2.25,1.84,3.29s1.49,2,2.29,3,1.64,2,2.49,2.88l2.48,2.67-3.3-1.44,0,0,.8-1.25.38.37,3.26,3.18-4.08-1.93a4.05,4.05,0,0,1-.44-.25l-.39-.24c-.25-.16-.49-.34-.72-.51l0,0a18.76,18.76,0,0,1-3.44-3c-1-1.08-2-2.21-2.91-3.37-1.84-2.32-3.52-4.7-5.13-7.19l1.11,0a25.84,25.84,0,0,0-1.49,3.19,26.25,26.25,0,0,0-1.06,3.37,31.08,31.08,0,0,0-.61,3.48l0,3.61,0,2.79-1-2.56a71.19,71.19,0,0,1-2.34-7.26c-.62-2.45-1.38-4.82-2-7.26s-1.3-4.88-1.85-7.34a37.28,37.28,0,0,1-1.1-7.54l.61.09-1.23,3.84-.31.95-.21-1-.39-1.72h0a33.46,33.46,0,0,1-.82-3.67L34.12,144c-.18-1.24-.34-2.48-.45-3.72-.06-.63-.1-1.25-.13-1.87l0-.94V137C33.5,136.89,33.55,136.84,33.6,136.67Z"/><path class="cls-2" d="M99,160.71c-.8,1.29-1.62,2.56-2.44,3.83l-.23-.2q2.36-2.31,4.75-4.57L102,159l-.37,1.15-1.36,4.22-.66-.37c1.31-1.67,2.68-3.31,4-5l.78-1v1.24l0,3.64-.84-.28,3.16-4.22.8-1.08.09,1.34.25,3.87-.84-.27,4.23-4.89.86-1-.1,1.31q-.16,2.36-.39,4.71l-.62-.31c2.13-1.8,4.24-3.62,6.38-5.4l.57-.47-.23.69c-.67,2-1.32,4.05-2,6.06.51-2.07,1.08-4.12,1.62-6.18l.34.22c-2,1.9-4.11,3.76-6.17,5.65l-.67.61,0-.92c.08-1.58.17-3.15.28-4.73l.76.32-4.16,4.93-.75.89-.09-1.16-.29-3.87.89.27-3.2,4.19-.84,1.11v-5l.79.28c-1.37,1.63-2.72,3.28-4.11,4.89L98.78,166l.71-2L101,159.9l.5.33q-2.46,2.19-5,4.33l-1,.87.77-1.07Q97.64,162.53,99,160.71Z"/><path class="cls-8" d="M58.88,151.69a38.4,38.4,0,0,1,4-2.14,35.09,35.09,0,0,1,4.22-1.7,41.17,41.17,0,0,1-8.22,3.84Z"/><path class="cls-8" d="M62,155.05a12.79,12.79,0,0,1,1.2-2.29,12.41,12.41,0,0,1,1.62-2,11.88,11.88,0,0,1-1.2,2.29A12.41,12.41,0,0,1,62,155.05Z"/><path class="cls-8" d="M64.88,165.07a11.79,11.79,0,0,1-.72-5.8,10.52,10.52,0,0,1,.72-2.87,10.23,10.23,0,0,1,1.46-2.55,18.14,18.14,0,0,0-1.09,2.68,14.11,14.11,0,0,0-.6,2.8A18.48,18.48,0,0,0,64.88,165.07Z"/><path class="cls-8" d="M61.27,158.41a4.89,4.89,0,0,1,.75-1.29A8.7,8.7,0,0,1,63,156a8.55,8.55,0,0,1,1.18-.9,7.83,7.83,0,0,1,1.31-.7c-.71.7-1.44,1.32-2.15,2S62,157.69,61.27,158.41Z"/><path class="cls-8" d="M106.16,20.73c-.8.79-1.56,1.63-2.28,2.49s-1.44,1.73-2.12,2.63a46.12,46.12,0,0,0-3.65,5.65,33.32,33.32,0,0,0-2.64,6.18L95,39.3c-.15.54-.21,1.1-.32,1.65a26.79,26.79,0,0,0-.39,3.36,23.25,23.25,0,0,1,.79-6.74,30.62,30.62,0,0,1,2.57-6.31,40.57,40.57,0,0,1,3.79-5.64A35.65,35.65,0,0,1,106.16,20.73Z"/><path class="cls-8" d="M95,27.22a12.85,12.85,0,0,1,1.88-1.88A20.81,20.81,0,0,1,99,23.75a21.88,21.88,0,0,1,2.32-1.3,20.06,20.06,0,0,1,2.46-1c-1.53.9-3,1.76-4.51,2.71S96.41,26.12,95,27.22Z"/><path class="cls-8" d="M95.64,48.57a18.54,18.54,0,0,1,3-4,13.44,13.44,0,0,1,4.1-2.91c-.67.51-1.32,1-1.94,1.56s-1.23,1.11-1.8,1.7C97.87,46.09,96.76,47.32,95.64,48.57Z"/><path class="cls-8" d="M85.13,58.09a12.91,12.91,0,0,1,2.42,1.74A15.66,15.66,0,0,1,89.61,62a14.67,14.67,0,0,1,2.71,5.3,28,28,0,0,0-1.42-2.59,23.46,23.46,0,0,0-1.68-2.4A29.12,29.12,0,0,0,85.13,58.09Z"/><path class="cls-8" d="M95.74,66.94a3.56,3.56,0,0,1,2-1.79,8.79,8.79,0,0,1,2.68-.57c1.81-.08,3.6-.07,5.4-.11,3.59,0,7.19,0,10.79.16-3.6.24-7.19.28-10.79.34h-5.39a8.17,8.17,0,0,0-2.6.41A3.57,3.57,0,0,0,95.74,66.94Z"/><path class="cls-8" d="M91.13,61.73c.46.69.91,1.39,1.32,2.12.21.36.41.72.59,1.1a4.87,4.87,0,0,1,.41,1.22l-.3,0A11,11,0,0,1,94.3,64l.3-.45.08.55L95,66l-.44,0a23.68,23.68,0,0,1,3.76-7.24A23.16,23.16,0,0,1,101,55.69a24.13,24.13,0,0,1,3.19-2.51,27.49,27.49,0,0,0-3,2.71A26.09,26.09,0,0,0,98.62,59a25.6,25.6,0,0,0-2.1,3.43A23.26,23.26,0,0,0,95,66.1l-.32,1-.13-1-.24-2,.38.1a10.9,10.9,0,0,0-1.19,2l-.24.54-.07-.57a5,5,0,0,0-.34-1.15c-.16-.38-.33-.76-.51-1.13C91.93,63.19,91.54,62.45,91.13,61.73Z"/><path class="cls-8" d="M133.06,61.7a7.67,7.67,0,0,1,3.4,2.59,11.28,11.28,0,0,1,1.11,1.86c.16.32.27.67.41,1l.3,1a15.11,15.11,0,0,0-2-3.73,9.69,9.69,0,0,0-1.45-1.55A7.77,7.77,0,0,0,133.06,61.7Z"/><path class="cls-8" d="M28.68,124.62a10.86,10.86,0,0,0,1.17-5.12,20,20,0,0,0-.67-5.22c-.42-1.74-.82-3.49-1.08-5.26a23.38,23.38,0,0,1-.28-5.35,19.76,19.76,0,0,0,.23,2.66c.11.88.26,1.76.43,2.63.33,1.74.73,3.47,1.18,5.2a18.56,18.56,0,0,1,.57,5.36A9.67,9.67,0,0,1,28.68,124.62Z"/><path class="cls-8" d="M32.15,74.12C34.19,69,36.49,64,39,59.05s5.14-9.78,8-14.49c.7-1.19,1.47-2.33,2.22-3.49s1.49-2.33,2.3-3.45l2.38-3.39L56.42,31A72.62,72.62,0,0,1,68,19.19L65,22c-1,.93-1.88,2-2.83,3-.46.51-1,1-1.39,1.52L59.45,28.1c-.86,1.06-1.78,2.09-2.57,3.22A150.56,150.56,0,0,0,47.61,45c-2.92,4.67-5.55,9.5-8.14,14.36-1.3,2.43-2.54,4.89-3.75,7.36S33.28,71.61,32.15,74.12Z"/><path class="cls-8" d="M55.09,40.12a30.62,30.62,0,0,1,2-4.86,43.63,43.63,0,0,1,2.64-4.54,43.17,43.17,0,0,1,3.17-4.2c.56-.67,1.17-1.31,1.76-1.95s1.25-1.22,1.9-1.81c-1.08,1.38-2.18,2.72-3.21,4.12s-2,2.81-3,4.25-1.87,2.92-2.76,4.41S55.88,38.56,55.09,40.12Z"/><path class="cls-8" d="M68,49a45.79,45.79,0,0,1-1-5c-.26-1.7-.41-3.41-.52-5.12A42.9,42.9,0,0,1,67,28.62c0,1.71,0,3.41,0,5.11s.11,3.4.22,5.1.22,3.39.34,5.09Z"/><path class="cls-8" d="M39.31,152.06c.78,3,1.45,6.1,2.2,9.13l2.17,9.14a81.06,81.06,0,0,1-2.66-9A90.66,90.66,0,0,1,39.31,152.06Z"/><path class="cls-8" d="M44.74,166.93a14.75,14.75,0,0,1,.87-3,12.94,12.94,0,0,1,.65-1.42,8.1,8.1,0,0,1,.85-1.33c-.32,1-.66,2-1,2.93A21.93,21.93,0,0,1,44.74,166.93Z"/><path class="cls-8" d="M30.35,138.09a22.88,22.88,0,0,1,.49-5.47,19.85,19.85,0,0,1,1.8-5.19c-.24.89-.5,1.75-.71,2.64s-.43,1.76-.6,2.65C31,134.5,30.65,136.28,30.35,138.09Z"/><path class="cls-8" d="M152.47,124.85c.68-1.54,1.32-3.06,1.87-4.62.29-.78.53-1.57.76-2.36s.41-1.6.59-2.42a13.79,13.79,0,0,1-.88,5A17.06,17.06,0,0,1,152.47,124.85Z"/><path class="cls-8" d="M99.93,45.83a30.11,30.11,0,0,1,5.22-4.53,48.13,48.13,0,0,1,6-3.51,50.07,50.07,0,0,1,6.44-2.54c1.09-.38,2.22-.63,3.33-.94s2.27-.45,3.39-.68c-2.22.59-4.44,1.2-6.6,2a57.56,57.56,0,0,0-6.34,2.63,52.46,52.46,0,0,0-6,3.38A38.09,38.09,0,0,0,99.93,45.83Z"/><path class="cls-8" d="M113.06,50.4a14.57,14.57,0,0,1,6.58-.93,13.4,13.4,0,0,1,3.3.7,25.62,25.62,0,0,1,3,1.42c2,1.09,3.79,2.35,5.66,3.52a22.53,22.53,0,0,0,6,2.67,19.23,19.23,0,0,1-3.22-.89,23.8,23.8,0,0,1-3-1.45c-1.94-1.11-3.77-2.37-5.71-3.41a25.14,25.14,0,0,0-3-1.43,14.52,14.52,0,0,0-3.19-.75,16.7,16.7,0,0,0-6.54.55Z"/><path class="cls-8" d="M117,48.61a11,11,0,0,1,.19-2.8,13.31,13.31,0,0,1,.8-2.7,11.16,11.16,0,0,1,3.3-4.51,20.54,20.54,0,0,0-1.61,2.25,17.53,17.53,0,0,0-1.23,2.45A22.79,22.79,0,0,0,117,48.61Z"/><path class="cls-8" d="M116.1,48.57a5.4,5.4,0,0,1-.41-2,8.2,8.2,0,0,1,1.85-5.55c-.24.61-.51,1.2-.7,1.81a15.4,15.4,0,0,0-.51,1.85,13.56,13.56,0,0,0-.26,1.9A10.51,10.51,0,0,0,116.1,48.57Z"/><path class="cls-8" d="M115.29,48.82a4,4,0,0,1-.65-1.26,5.12,5.12,0,0,1-.28-1.4,5.27,5.27,0,0,1,.52-2.77c0,.48-.06.93-.06,1.38s0,.91,0,1.35A16.15,16.15,0,0,0,115.29,48.82Z"/><path class="cls-8" d="M35.62,89.38c.68.77,1.33,1.57,2,2.38l-.32.16a11.75,11.75,0,0,1-.45-2.35,15.61,15.61,0,0,1-.06-2.37,14.29,14.29,0,0,1,1-4.62c-.14.78-.27,1.54-.36,2.32s-.13,1.54-.15,2.31a22.14,22.14,0,0,0,.39,4.61l.19.91L37.29,92C36.71,91.13,36.15,90.27,35.62,89.38Z"/><path class="cls-8" d="M44.11,168.64a15.45,15.45,0,0,1-.94-4,11.84,11.84,0,0,1,.2-4.07c0,.68.06,1.35.11,2s.11,1.33.19,2Z"/><path class="cls-8" d="M29.87,144.91a44.71,44.71,0,0,1,1.93-6.71c.42-1.09.85-2.17,1.37-3.22a21.1,21.1,0,0,1,1.74-3C32.93,136.16,31.52,140.55,29.87,144.91Z"/><path class="cls-8" d="M54.9,144.6a19.35,19.35,0,0,1-5-3.51,29.25,29.25,0,0,1-4-4.71c-.53-.88-1.1-1.74-1.55-2.66a26.16,26.16,0,0,1-1.3-2.79c-.42-.94-.69-1.93-1-2.89s-.53-2-.77-3c.35,1,.64,1.94,1,2.89s.7,1.91,1.16,2.82a37.52,37.52,0,0,0,2.91,5.32,31.47,31.47,0,0,0,3.82,4.71A23.15,23.15,0,0,0,54.9,144.6Z"/><path class="cls-8" d="M67.92,164.12a31.67,31.67,0,0,0,2.71,2.94,18.55,18.55,0,0,0,1.51,1.28,17.88,17.88,0,0,0,1.69,1.06,7.63,7.63,0,0,1-3.55-2,11.47,11.47,0,0,1-1.34-1.54A8.93,8.93,0,0,1,67.92,164.12Z"/><line class="cls-3" x1="111.99" y1="103.25" x2="105.35" y2="102.99"/><polygon points="111.98 103.5 105.35 102.99 112 103 111.98 103.5"/><line class="cls-3" x1="114.45" y1="104.3" x2="106.21" y2="103.7"/><polygon points="114.43 104.55 106.21 103.7 114.47 104.06 114.43 104.55"/><line class="cls-3" x1="116.94" y1="105.44" x2="107.85" y2="104.54"/><polygon points="116.91 105.69 107.85 104.54 116.96 105.19 116.91 105.69"/><path class="cls-3" d="M153.92,92.28s-1.65,6.57.14,12.1"/><path d="M153.92,92.28c-.19,1-.31,2-.41,3s-.16,2-.16,3a25.79,25.79,0,0,0,.15,3,21.86,21.86,0,0,0,.56,3,15.76,15.76,0,0,1-.75-3,22.37,22.37,0,0,1-.21-3.06A24.33,24.33,0,0,1,153.92,92.28Z"/><path class="cls-3" d="M38.32,111.86s.88,6.55,3.17,10.68"/><path d="M38.32,111.86c.18.92.38,1.83.59,2.74s.43,1.81.69,2.7a31.19,31.19,0,0,0,1.89,5.24,20.88,20.88,0,0,1-2.13-5.17A33.45,33.45,0,0,1,38.32,111.86Z"/><path class="cls-3" d="M54.14,127.43s-4.53-3-7.16-10.63"/><path d="M54.14,127.43a17,17,0,0,1-4.44-4.73,23.86,23.86,0,0,1-1.56-2.85c-.25-.49-.42-1-.64-1.5s-.34-1-.52-1.55a34,34,0,0,0,2.93,5.77,25.6,25.6,0,0,0,1.93,2.59A17.62,17.62,0,0,0,54.14,127.43Z"/><path class="cls-3" d="M44.12,115.37a21.19,21.19,0,0,0,4.43,8.9"/><path d="M44.12,115.37c.22.8.5,1.59.79,2.37s.63,1.55,1,2.29a22,22,0,0,0,1.21,2.18,22.26,22.26,0,0,0,1.43,2.06,14.11,14.11,0,0,1-1.59-2,17,17,0,0,1-1.27-2.18A17.58,17.58,0,0,1,44.12,115.37Z"/><path class="cls-3" d="M48.3,122.54a16.68,16.68,0,0,0,8.23,7.63"/><path d="M48.3,122.54a17.14,17.14,0,0,0,1.61,2.35A18.17,18.17,0,0,0,51.84,127a15.89,15.89,0,0,0,2.22,1.78,17.7,17.7,0,0,0,2.47,1.41A13.35,13.35,0,0,1,54,128.92a14.43,14.43,0,0,1-2.28-1.76A14.75,14.75,0,0,1,48.3,122.54Z"/><path class="cls-3" d="M55.2,128.2A25.1,25.1,0,0,0,65,131.91"/><path d="M55.2,128.2c.76.45,1.54.85,2.33,1.23s1.6.73,2.42,1a24,24,0,0,0,2.48.83c.84.26,1.7.44,2.56.62a17.63,17.63,0,0,1-2.6-.43,21.13,21.13,0,0,1-7.19-3.28Z"/><path class="cls-3" d="M51.71,128.5a20.22,20.22,0,0,0,9.66,3.9"/><path d="M51.71,128.5c.73.49,1.49.94,2.25,1.35A22.29,22.29,0,0,0,56.33,131a19.6,19.6,0,0,0,2.47.88,18.62,18.62,0,0,0,2.57.54,12.91,12.91,0,0,1-2.62-.36,16.16,16.16,0,0,1-2.52-.83A17.74,17.74,0,0,1,51.71,128.5Z"/><path class="cls-3" d="M46.72,119.06a30.17,30.17,0,0,1-2.42-9"/><path d="M46.72,119.06a21.92,21.92,0,0,1-1.67-4.36c-.2-.76-.38-1.52-.51-2.29a20.21,20.21,0,0,1-.24-2.33c.13.77.26,1.54.43,2.29s.34,1.52.56,2.26.42,1.49.66,2.23S46.44,118.33,46.72,119.06Z"/><path d="M50,98.67a21.6,21.6,0,0,0-1.23,2.27,18.79,18.79,0,0,0-1,2.38,19.06,19.06,0,0,0-1,5,13.25,13.25,0,0,1,.15-2.59,14.52,14.52,0,0,1,.63-2.52A15.69,15.69,0,0,1,50,98.67Z"/><path d="M46.26,103.14a26.79,26.79,0,0,0-.24,3.09c0,1,0,2.06,0,3.08a42.33,42.33,0,0,0,.8,6.13,25.93,25.93,0,0,1-.7-3,26.8,26.8,0,0,1-.35-3.09A23,23,0,0,1,46.26,103.14Z"/><path d="M134.46,108.54a17.72,17.72,0,0,0,3.85-.4,16.34,16.34,0,0,0,5.29-2.26,13.54,13.54,0,0,0,1.5-1.22,15.71,15.71,0,0,0,2.44-3,12.41,12.41,0,0,1-2.33,3.11,12,12,0,0,1-1.49,1.27,14,14,0,0,1-9.26,2.49Z"/><path d="M142.64,108.24a17.72,17.72,0,0,0,2.59-1.69,15.42,15.42,0,0,0,2.21-2.14,10.56,10.56,0,0,0,1.61-2.6,10.07,10.07,0,0,0,.77-3,8.61,8.61,0,0,1-.59,3,10,10,0,0,1-1.6,2.69A13.47,13.47,0,0,1,142.64,108.24Z"/><path d="M121.35,123.45a6,6,0,0,0,1.34-.72,4.8,4.8,0,0,0,1.08-1,6.06,6.06,0,0,0,1.17-2.75,5.31,5.31,0,0,1-.24,1.53,4.42,4.42,0,0,1-3.35,3Z"/><path d="M98.26,123.26a4.64,4.64,0,0,1-2-2.12,4.45,4.45,0,0,1-.42-1.43,4.83,4.83,0,0,1,.06-1.47,6.13,6.13,0,0,0,.58,2.79,5.24,5.24,0,0,0,.76,1.21A7.09,7.09,0,0,0,98.26,123.26Z"/><path class="cls-3" d="M129,119.65a16.39,16.39,0,0,1,6.56,2.79"/><path d="M129.08,119.27a12.66,12.66,0,0,1,1.78.53,16.47,16.47,0,0,1,1.67.72,19.67,19.67,0,0,1,3.06,1.92,19.46,19.46,0,0,0-3.21-1.57,14.38,14.38,0,0,0-1.69-.53A10.68,10.68,0,0,0,129,120Z"/><path class="cls-3" d="M128.77,118.23a12.57,12.57,0,0,1,5.46,1.69"/><path d="M128.79,117.85a15.27,15.27,0,0,1,2.87.72,9.86,9.86,0,0,1,2.57,1.35,9.94,9.94,0,0,0-2.68-1,14.08,14.08,0,0,0-2.8-.33Z"/><path class="cls-3" d="M128.4,116.7a13,13,0,0,1,4.64,1.11"/><path d="M128.41,116.32a14.54,14.54,0,0,1,2.41.53,10.71,10.71,0,0,1,2.22,1,10.32,10.32,0,0,0-2.31-.59,13.2,13.2,0,0,0-2.34-.15Z"/><path d="M119.84,96.24a14.55,14.55,0,0,0,.57,2.39,15.62,15.62,0,0,0,.94,2.28,11.81,11.81,0,0,0,1.36,2.08,9.85,9.85,0,0,0,1.83,1.7,10,10,0,0,1-2-1.58,12,12,0,0,1-1.54-2,16.05,16.05,0,0,1-1.93-4.74Z"/><path d="M118.73,96.13a19.42,19.42,0,0,0,1,3.57,7.51,7.51,0,0,0,2,3.12,7.67,7.67,0,0,1-2.32-3A20.62,20.62,0,0,1,118,96.28Z"/><path class="cls-3" d="M117.28,96.61a15.79,15.79,0,0,0,2.73,5.11"/><path d="M117.64,96.5a19.79,19.79,0,0,0,.92,2.72,11.16,11.16,0,0,0,1.45,2.5,10.66,10.66,0,0,1-1.78-2.33,21.3,21.3,0,0,1-1.31-2.67Z"/><path d="M84.75,97.85a27.77,27.77,0,0,1,2.52,5.35,17.52,17.52,0,0,1,1,5.76,17.35,17.35,0,0,0-1.38-5.63,26.06,26.06,0,0,0-2.78-5Z"/><path d="M87,99.47a24,24,0,0,1,1.58,4.81,16.22,16.22,0,0,1,.35,5,15.88,15.88,0,0,0-.71-4.9,23.4,23.4,0,0,0-1.88-4.56Z"/><path d="M89.33,101.27a19.08,19.08,0,0,1,.45,2.56,19.86,19.86,0,0,1,.1,2.56,17.3,17.3,0,0,1-.84,5,17.26,17.26,0,0,0,.47-5,20.86,20.86,0,0,0-.29-2.49,17.21,17.21,0,0,0-.61-2.4Z"/><path class="cls-3" d="M98.08,123.63a6,6,0,0,1-2.34-2.46"/><path d="M98.08,123.63a3.72,3.72,0,0,1-1.43-1,5.06,5.06,0,0,1-.53-.69,4.68,4.68,0,0,1-.38-.78A14,14,0,0,0,98.08,123.63Z"/><path class="cls-3" d="M121.24,124a6.38,6.38,0,0,0,2.91-1.72"/><path d="M121.24,124a11.94,11.94,0,0,0,2.91-1.72,3,3,0,0,1-1.27,1.18A5,5,0,0,1,121.24,124Z"/><path d="M113.11,87.32l3.23,10.32,38.07-7.9,3.4-6.49s-5.37,3.27-8.73,2.72S124.18,82.9,113.11,87.32Z"/><path class="cls-3" d="M95.21,102.37s9.94-6.54,8.13-17.7"/><path d="M95.21,102.37a25.6,25.6,0,0,0,3.63-3.58,21.75,21.75,0,0,0,2.75-4.25,18.24,18.24,0,0,0,1-2.33c.13-.4.22-.82.33-1.22a7.6,7.6,0,0,0,.26-1.24,19.18,19.18,0,0,0,.18-5.08A15.56,15.56,0,0,1,102,94.76,19.72,19.72,0,0,1,99.13,99,18.61,18.61,0,0,1,95.21,102.37Z"/><line class="cls-3" x1="115.44" y1="97.71" x2="112.06" y2="86.89"/><path d="M115.44,97.71a55.7,55.7,0,0,1-1.93-5.34,56.6,56.6,0,0,1-1.45-5.48A55.7,55.7,0,0,1,114,92.23C114.54,94,115.06,95.85,115.44,97.71Z"/><path class="cls-3" d="M102.68,92.61a7,7,0,0,0,2.81,3.61"/><path d="M102.93,92.56a4,4,0,0,0,.38,1,7.38,7.38,0,0,0,.59,1,9.68,9.68,0,0,0,1.59,1.67,9.82,9.82,0,0,1-1.78-1.51,8.42,8.42,0,0,1-.73-.94,4.69,4.69,0,0,1-.54-1.1Z"/></g></g></svg>